# xmcd CD database file
#
# Track frame offsets:
#	183
#	26113
#	46528
#	69493
#	85430
#	118570
#	146100
#
# Disc length: 2248 seconds
#
# Revision: 0
# Processed by: cddbd v1.5.2PL0 Copyright (c) Steve Scherf et al.
# Submitted via: CDex 1.51
#
DISCID=5c08c607
DTITLE=Wes Montgomery - Movin' along
DYEAR=1960
DGENRE=Jazz
TTITLE0=Movin' along
TTITLE1=Tune-up
TTITLE2=Ghost of a chance
TTITLE3=Sandu
TTITLE4=Body and soul
TTITLE5=So do it !
TTITLE6=Says you
EXTD=YEAR: 1960
EXTT0=
EXTT1=
EXTT2=
EXTT3=
EXTT4=
EXTT5=
EXTT6=
PLAYORDER=
